######## ######## ######## ##          ######## ########  ######## ######## 
##       ##       ##       ##          ##       ##     ## ##       ##       
##       ##       ##       ##          ##       ##     ## ##       ##       
######   ######   ######   ##          ######   ########  ######   ######   
##       ##       ##       ##          ##       ##   ##   ##       ##       
##       ##       ##       ##          ##       ##    ##  ##       ##       
##       ######## ######## ########    ##       ##     ## ######## ######## 


Genre:Thriller 
Language:English
IMDb: 
http://www.imdb.com/title/tt1219289/
Source:TS.ELEKTRI4KA/IMAGINE Thx.


Format : AVI
Format/Info : Audio Video Interleave
File size : 887 MiB
Duration : 1h 31mn
Overall bit rate : 1 354 Kbps


Video
Codec ID/Hint : XviD
Duration : 1h 31mn
Bit rate : 1 217 Kbps
Width : 720 pixels
Height : 304 pixels
Display aspect ratio : 2.35:1
Frame rate : 25.000 fps
Color space : YUV
Chroma subsampling : 4:2:0
Bit depth : 8 bits
Scan type : Progressive
Bits/(Pixel*Frame) : 0.222
Stream size : 797 MiB (90%)
Writing library : XviD 1.2.1 

Audio
ID : 1
Format : MPEG Audio
Format version : Version 1
Format profile : Layer 3
Codec ID : 55
Codec ID/Hint : MP3
Duration : 1h 31mn
Bit rate mode : Constant
Bit rate : 128 Kbps
Channel(s) : 2 channels
Sampling rate : 44.1 KHz
Video delay : 15ms
Stream size : 83.9 MiB (9%)
Alignment : Split accross interleaves
Interleave, duration : 40 ms (1.00 video frame)
Interleave, preload duration : 500 ms



Plot:
A writer discovers a top-secret drug which bestows him with super human abilities



Greets:

INK,CRYS,IMAGINE,LKRG,FXG,3Li,FLAWL3SS,TA,iLLUSiON,ViSiON,DTRG SAFCuk009,LU,TheFalcon007,MYSTiC,PrisM,Noir,WBZ,LAP,Rx,Kingdom,SAFCuk009+Fabreezy,HDLiTE,TWiZTED,ExtraTorrentRG.ELEKTRI4KA,MAGNAT,CM8
And to all the other p2p grps past and present







================================== 
http://thepiratebay.org/user/hiest
==================================






Screenshots:
 
http://www.pix2links.com/images/91327758596353327486.png
 
http://www.pix2links.com/images/13453838189403168726.png
 
http://www.pix2links.com/images/37805840301208844974.png
 
http://www.pix2links.com/images/40739703795858603864.png
 
http://www.pix2links.com/images/18425228292914114742.png
 
http://www.pix2links.com/images/34611180361448065831.png


######## ######## ######## ##          ######## ########  ######## ######## 
##       ##       ##       ##          ##       ##     ## ##       ##       
##       ##       ##       ##          ##       ##     ## ##       ##       
######   ######   ######   ##          ######   ########  ######   ######   
##       ##       ##       ##          ##       ##   ##   ##       ##       
##       ##       ##       ##          ##       ##    ##  ##       ##       
##       ######## ######## ########    ##       ##     ## ######## ######## 
